<?xml version="1.0" standalone="no"?>
<!DOCTYPE svg PUBLIC "-//W3C//DTD SVG 20010904//EN"
 "http://www.w3.org/TR/2001/REC-SVG-20010904/DTD/svg10.dtd">
<svg version="1.0" xmlns="http://www.w3.org/2000/svg"
 width="500.000000pt" height="500.000000pt" viewBox="0 0 500.000000 500.000000"
 preserveAspectRatio="xMidYMid meet">
<metadata>
Created by potrace 1.11, written by Peter Selinger 2001-2013
</metadata>
<g transform="translate(0.000000,500.000000) scale(0.100000,-0.100000)"
fill="#000000" stroke="none">
<path d="M2105 4770 c-93 -5 -225 -14 -293 -20 -68 -5 -341 -10 -607 -10 -478
0 -484 0 -495 -21 -16 -29 -9 -59 20 -80 29 -22 164 -39 315 -39 55 0 117 -5
138 -11 88 -24 151 -121 183 -279 16 -78 18 -233 21 -1955 3 -1346 1 -1877 -7
-1896 -19 -45 -49 -52 -275 -59 -130 -4 -219 -11 -232 -19 -30 -16 -42 -41
-36 -74 12 -63 68 -67 466 -41 286 19 528 14 727 -15 264 -39 307 -43 482 -42
516 0 920 123 1198 361 170 147 284 344 336 583 22 100 30 342 14 463 -43 344
-191 575 -483 753 -111 68 -295 157 -394 191 -51 18 -100 38 -109 44 -15 11
-15 14 2 31 11 10 102 73 204 141 102 67 217 151 257 188 224 208 336 502 320
846 -23 513 -334 842 -887 942 -96 17 -164 21 -405 23 -159 2 -366 -1 -460 -5z
m523 -180 c155 -38 276 -105 395 -219 159 -152 262 -340 325 -590 23 -94 26
-125 26 -271 0 -182 -12 -255 -64 -387 -58 -151 -168 -286 -336 -414 -78 -60
-97 -70 -121 -65 -81 16 -272 28 -563 35 -345 8 -368 12 -389 58 -8 17 -11
274 -11 879 0 706 2 860 14 888 16 38 61 69 124 86 130 34 461 34 600 0z
m-329 -2030 c764 -68 1257 -606 1200 -1311 -37 -461 -282 -774 -689 -879 -176
-45 -526 -36 -700 19 -130 41 -157 75 -184 232 -32 186 -37 338 -34 1091 3
741 3 747 24 775 55 74 154 93 383 73z"/>
</g>
</svg>
